<?xml version="1.0" standalone="no"?><svg xmlns="http://www.w3.org/2000/svg" viewBox="0 0 1440 320"><path fill="#ffffff" fill-opacity="1" d="M0,256L12,234.7C24,213,48,171,72,165.3C96,160,120,192,144,202.7C168,213,192,203,216,208C240,213,264,235,288,208C312,181,336,107,360,117.3C384,128,408,224,432,240C456,256,480,192,504,170.7C528,149,552,171,576,197.3C600,224,624,256,648,229.3C672,203,696,117,720,80C744,43,768,53,792,48C816,43,840,21,864,48C888,75,912,149,936,192C960,235,984,245,1008,234.7C1032,224,1056,192,1080,192C1104,192,1128,224,1152,224C1176,224,1200,192,1224,160C1248,128,1272,96,1296,74.7C1320,53,1344,43,1368,74.7C1392,107,1416,181,1428,218.7L1440,256L1440,320L1428,320C1416,320,1392,320,1368,320C1344,320,1320,320,1296,320C1272,320,1248,320,1224,320C1200,320,1176,320,1152,320C1128,320,1104,320,1080,320C1056,320,1032,320,1008,320C984,320,960,320,936,320C912,320,888,320,864,320C840,320,816,320,792,320C768,320,744,320,720,320C696,320,672,320,648,320C624,320,600,320,576,320C552,320,528,320,504,320C480,320,456,320,432,320C408,320,384,320,360,320C336,320,312,320,288,320C264,320,240,320,216,320C192,320,168,320,144,320C120,320,96,320,72,320C48,320,24,320,12,320L0,320Z"></path></svg>